# xmcd CD database file
#
# Track frame offsets:
#	150
#	41357
#	93102
#	130650
#	182865
#	232862
#	276330
#
# Disc length: 4203 seconds
#
# Revision: 0
# Processed by: cddbd v1.5.2PL0 Copyright (c) Steve Scherf et al.
# Submitted via: CDex 1.51
#
DISCID=51106907
DTITLE=White Mark - Live at the Warsaw jazz festival 1991
DYEAR=1991
DGENRE=Jazz
TTITLE0=Eighty-one
TTITLE1=The deep
TTITLE2=Soulero
TTITLE3=Blue in green
TTITLE4=Czesc Warzawa (hello Warsaw)
TTITLE5=Morning
TTITLE6=Broadway blues
EXTD=YEAR: 1991
EXTT0=
EXTT1=
EXTT2=
EXTT3=
EXTT4=
EXTT5=
EXTT6=
PLAYORDER=
